<svg xmlns="http://www.w3.org/2000/svg" viewBox="0 0 1080 1350" width="1080" height="1350">
  <defs>
    <linearGradient id="bg" x1="0" y1="0" x2="0.5" y2="1">
      <stop offset="0%" stop-color="#0D1117"/>
      <stop offset="100%" stop-color="#161c2a"/>
    </linearGradient>
    <linearGradient id="orange" x1="0" y1="0" x2="1" y2="0">
      <stop offset="0%" stop-color="#FF4B00"/>
      <stop offset="100%" stop-color="#ff7a3d"/>
    </linearGradient>
    <linearGradient id="day1grad" x1="0" y1="0" x2="1" y2="0">
      <stop offset="0%" stop-color="#FF4B00"/>
      <stop offset="100%" stop-color="#cc3c00"/>
    </linearGradient>
    <linearGradient id="day2grad" x1="0" y1="0" x2="1" y2="0">
      <stop offset="0%" stop-color="#1a2a40"/>
      <stop offset="100%" stop-color="#1e3050"/>
    </linearGradient>
  </defs>

  <!-- Background -->
  <rect width="1080" height="1350" fill="url(#bg)"/>
  <circle cx="150" cy="100" r="260" fill="#FF4B00" opacity="0.05"/>
  <circle cx="950" cy="1280" r="200" fill="#FF4B00" opacity="0.04"/>

  <!-- Top bar -->
  <rect x="0" y="0" width="1080" height="7" fill="url(#orange)"/>

  <!-- ── HEADER ── -->
  <text x="54" y="62" font-family="Georgia, serif" font-size="19" fill="#FF4B00" font-weight="bold" letter-spacing="4">KIM'S COMMUNITY TRAVEL</text>

  <rect x="54" y="82" width="116" height="34" rx="7" fill="#FF4B00"/>
  <text x="112" y="106" font-family="Georgia, serif" font-size="20" fill="white" font-weight="bold" text-anchor="middle">N100</text>

  <rect x="184" y="82" width="290" height="34" rx="7" fill="rgba(255,255,255,0.07)"/>
  <text x="329" y="106" font-family="Arial, sans-serif" font-size="16" fill="rgba(255,255,255,0.65)" text-anchor="middle">🇰🇷 Government Sponsored</text>

  <text x="54" y="156" font-family="Georgia, serif" font-size="46" fill="white" font-weight="bold">Schedule</text>
  <text x="340" y="156" font-family="Georgia, serif" font-size="46" fill="#FF4B00" font-weight="bold">· May 4–5</text>
  <text x="54" y="193" font-family="Arial, sans-serif" font-size="22" fill="rgba(255,255,255,0.45)">Namwon · Yeoju · Seoul · Meet 07:00 Yongsan Exit 1</text>

  <!-- ── DAY 1 HEADER ── -->
  <rect x="0" y="214" width="1080" height="52" fill="url(#day1grad)"/>
  <text x="54" y="249" font-family="Georgia, serif" font-size="26" fill="white" font-weight="bold">DAY 1</text>
  <text x="160" y="249" font-family="Arial, sans-serif" font-size="22" fill="rgba(255,255,255,0.7)">Monday, May 4, 2026</text>
  <text x="1026" y="249" font-family="Arial, sans-serif" font-size="20" fill="rgba(255,255,255,0.5)" text-anchor="end">🌸 Namwon</text>

  <!-- DAY 1 ITEMS (5 items × 98px = 490px, start y=266, end y=756) -->

  <!-- Item 1: 07:00 -->
  <rect x="0" y="266" width="1080" height="98" fill="rgba(255,75,0,0.04)"/>
  <rect x="0" y="266" width="4" height="98" fill="#FF4B00" opacity="0.6"/>
  <text x="80" y="323" font-family="Arial, sans-serif" font-size="21" fill="#FF4B00" font-weight="bold">07:00</text>
  <circle cx="210" cy="315" r="5" fill="#FF4B00" opacity="0.7"/>
  <text x="228" y="308" font-family="Arial, sans-serif" font-size="26" fill="white" font-weight="bold">Depart Seoul</text>
  <text x="228" y="338" font-family="Arial, sans-serif" font-size="20" fill="rgba(255,255,255,0.45)">Yongsan Station Exit 1 · Chartered Bus</text>
  <text x="228" y="360" font-family="Arial, sans-serif" font-size="19" fill="rgba(255,255,255,0.25)">~4 hours to Namwon</text>
  <rect x="0" y="363" width="1080" height="1" fill="rgba(255,255,255,0.05)"/>

  <!-- Item 2: 11:00 -->
  <text x="80" y="421" font-family="Arial, sans-serif" font-size="21" fill="#FF4B00" font-weight="bold">11:00</text>
  <circle cx="210" cy="413" r="5" fill="#FF4B00" opacity="0.7"/>
  <text x="228" y="406" font-family="Arial, sans-serif" font-size="26" fill="white" font-weight="bold">Arrive Namwon · Lunch</text>
  <text x="228" y="436" font-family="Arial, sans-serif" font-size="20" fill="rgba(255,255,255,0.45)">Lunch in Namwon (provided)</text>
  <rect x="0" y="461" width="1080" height="1" fill="rgba(255,255,255,0.05)"/>

  <!-- Item 3: 12:30 -->
  <rect x="0" y="462" width="1080" height="98" fill="rgba(255,75,0,0.04)"/>
  <rect x="0" y="462" width="4" height="98" fill="#FF4B00" opacity="0.6"/>
  <text x="80" y="519" font-family="Arial, sans-serif" font-size="21" fill="#FF4B00" font-weight="bold">12:30</text>
  <circle cx="210" cy="511" r="5" fill="#FF4B00" opacity="0.7"/>
  <text x="228" y="504" font-family="Arial, sans-serif" font-size="26" fill="white" font-weight="bold">Kim Byeong-jong Art Museum</text>
  <text x="228" y="534" font-family="Arial, sans-serif" font-size="20" fill="rgba(255,255,255,0.45)">Namwon Municipal Art Museum</text>
  <rect x="0" y="559" width="1080" height="1" fill="rgba(255,255,255,0.05)"/>

  <!-- Item 4: 14:00 -->
  <text x="80" y="617" font-family="Arial, sans-serif" font-size="21" fill="#FF4B00" font-weight="bold">14:00</text>
  <circle cx="210" cy="609" r="5" fill="#FF4B00" opacity="0.7"/>
  <text x="228" y="602" font-family="Arial, sans-serif" font-size="26" fill="white" font-weight="bold">Chunhyang Festival + Grand Parade 🌸</text>
  <text x="228" y="632" font-family="Arial, sans-serif" font-size="20" fill="rgba(255,255,255,0.45)">Korea's oldest festival · 96th edition · fireworks</text>
  <text x="228" y="654" font-family="Arial, sans-serif" font-size="19" fill="rgba(255,255,255,0.25)">Until 18:00</text>
  <rect x="0" y="657" width="1080" height="1" fill="rgba(255,255,255,0.05)"/>

  <!-- Item 5: 18:30 -->
  <rect x="0" y="658" width="1080" height="98" fill="rgba(255,75,0,0.04)"/>
  <rect x="0" y="658" width="4" height="98" fill="#FF4B00" opacity="0.6"/>
  <text x="80" y="715" font-family="Arial, sans-serif" font-size="21" fill="#FF4B00" font-weight="bold">18:30</text>
  <circle cx="210" cy="707" r="5" fill="#FF4B00" opacity="0.7"/>
  <text x="228" y="700" font-family="Arial, sans-serif" font-size="26" fill="white" font-weight="bold">Rural Village · Dinner + Overnight 🌙</text>
  <text x="228" y="730" font-family="Arial, sans-serif" font-size="20" fill="rgba(255,255,255,0.45)">Traditional dinner provided · countryside stay</text>
  <rect x="0" y="755" width="1080" height="1" fill="rgba(255,255,255,0.08)"/>

  <!-- ── DAY 2 HEADER ── -->
  <rect x="0" y="756" width="1080" height="52" fill="url(#day2grad)"/>
  <text x="54" y="791" font-family="Georgia, serif" font-size="26" fill="white" font-weight="bold">DAY 2</text>
  <text x="160" y="791" font-family="Arial, sans-serif" font-size="22" fill="rgba(255,255,255,0.7)">Tuesday, May 5 · Children's Day</text>
  <text x="1026" y="791" font-family="Arial, sans-serif" font-size="20" fill="rgba(255,255,255,0.5)" text-anchor="end">🚴 Yeoju · 🌷 Seoul</text>

  <!-- DAY 2 ITEMS (6 items × 90px = 540px, start y=808, end y=1348) -->

  <!-- Item 6: 07:00 -->
  <rect x="0" y="808" width="1080" height="90" fill="rgba(37,99,235,0.06)"/>
  <rect x="0" y="808" width="4" height="90" fill="#2563EB" opacity="0.6"/>
  <text x="80" y="861" font-family="Arial, sans-serif" font-size="21" fill="#60a5fa" font-weight="bold">07:00</text>
  <circle cx="210" cy="853" r="5" fill="#60a5fa" opacity="0.7"/>
  <text x="228" y="846" font-family="Arial, sans-serif" font-size="26" fill="white" font-weight="bold">Breakfast · Rural Village</text>
  <text x="228" y="876" font-family="Arial, sans-serif" font-size="20" fill="rgba(255,255,255,0.45)">Morning meal provided</text>
  <rect x="0" y="897" width="1080" height="1" fill="rgba(255,255,255,0.05)"/>

  <!-- Item 7: 08:00 -->
  <text x="80" y="950" font-family="Arial, sans-serif" font-size="21" fill="#60a5fa" font-weight="bold">08:00</text>
  <circle cx="210" cy="942" r="5" fill="#60a5fa" opacity="0.5"/>
  <text x="228" y="935" font-family="Arial, sans-serif" font-size="26" fill="rgba(255,255,255,0.7)">Travel: Namwon → Yeoju</text>
  <text x="228" y="965" font-family="Arial, sans-serif" font-size="20" fill="rgba(255,255,255,0.35)">~3.5 hours · arrive 11:30</text>
  <rect x="0" y="987" width="1080" height="1" fill="rgba(255,255,255,0.05)"/>

  <!-- Item 8: 11:30 -->
  <rect x="0" y="988" width="1080" height="90" fill="rgba(37,99,235,0.06)"/>
  <rect x="0" y="988" width="4" height="90" fill="#2563EB" opacity="0.6"/>
  <text x="80" y="1041" font-family="Arial, sans-serif" font-size="21" fill="#60a5fa" font-weight="bold">11:30</text>
  <circle cx="210" cy="1033" r="5" fill="#60a5fa" opacity="0.7"/>
  <text x="228" y="1026" font-family="Arial, sans-serif" font-size="26" fill="white" font-weight="bold">Yeoju Traditional Market</text>
  <text x="228" y="1056" font-family="Arial, sans-serif" font-size="20" fill="rgba(255,255,255,0.45)">Yeoju Traditional Market · browse &amp; explore</text>
  <rect x="0" y="1077" width="1080" height="1" fill="rgba(255,255,255,0.05)"/>

  <!-- Item 9: 13:10 -->
  <text x="80" y="1130" font-family="Arial, sans-serif" font-size="21" fill="#60a5fa" font-weight="bold">13:10</text>
  <circle cx="210" cy="1122" r="5" fill="#60a5fa" opacity="0.7"/>
  <text x="228" y="1115" font-family="Arial, sans-serif" font-size="26" fill="white" font-weight="bold">Yeoju Bicycle Festival 🚴</text>
  <text x="228" y="1145" font-family="Arial, sans-serif" font-size="20" fill="rgba(255,255,255,0.45)">Riverside cycling · food stalls · live music</text>
  <rect x="0" y="1167" width="1080" height="1" fill="rgba(255,255,255,0.05)"/>

  <!-- Item 10: 15:00 -->
  <rect x="0" y="1168" width="1080" height="90" fill="rgba(37,99,235,0.06)"/>
  <rect x="0" y="1168" width="4" height="#2563EB" fill="rgba(255,255,255,0.05)"/>
  <rect x="0" y="1168" width="4" height="90" fill="#2563EB" opacity="0.5"/>
  <text x="80" y="1221" font-family="Arial, sans-serif" font-size="21" fill="#60a5fa" font-weight="bold">15:00</text>
  <circle cx="210" cy="1213" r="5" fill="#60a5fa" opacity="0.5"/>
  <text x="228" y="1206" font-family="Arial, sans-serif" font-size="26" fill="rgba(255,255,255,0.7)">Travel: Yeoju → Seoul</text>
  <text x="228" y="1236" font-family="Arial, sans-serif" font-size="20" fill="rgba(255,255,255,0.35)">~1.5 hours</text>
  <rect x="0" y="1257" width="1080" height="1" fill="rgba(255,255,255,0.05)"/>

  <!-- Item 11: 16:30 -->
  <text x="80" y="1310" font-family="Arial, sans-serif" font-size="21" fill="#60a5fa" font-weight="bold">16:30</text>
  <circle cx="210" cy="1302" r="5" fill="#60a5fa" opacity="0.7"/>
  <text x="228" y="1295" font-family="Arial, sans-serif" font-size="26" fill="white" font-weight="bold">Seoul Spring Festa 🌷</text>
  <text x="228" y="1325" font-family="Arial, sans-serif" font-size="20" fill="rgba(255,255,255,0.45)">Han River · free entry · free dispersal</text>

  <!-- Footer -->
  <rect x="0" y="1308" width="1080" height="1" fill="rgba(255,255,255,0.0)"/>
  <text x="54" y="1344" font-family="Arial, sans-serif" font-size="18" fill="rgba(255,255,255,0.28)">10 EUR · intl students · Bus · 1 Night · 3 Meals Included</text>
  <text x="1026" y="1344" font-family="Arial, sans-serif" font-size="19" fill="#FF4B00" font-weight="bold" text-anchor="end">@kims_community_travel</text>

  <!-- Bottom bar -->
  <rect x="0" y="1343" width="1080" height="7" fill="url(#orange)"/>
</svg>
